{"title":"Cuatro Fantasticos [1080p][Spanish,English]","uid":12828597,"size":3697529285,"categoryP":"video","categoryS":"movies","magnet":"?xt=urn:btih:0f1cf216c93c63108db778bdcae60cc12e1baf4b&amp;dn=Cuatro+Fantasticos+%5B1080p%5D%5BSpanish%2CEnglish%5D&amp;tr=udp%3A%2F%2Ftracker.leechers-paradise.org%3A6969&amp;tr=udp%3A%2F%2Fzer0day.ch%3A1337&amp;tr=udp%3A%2F%2Fopen.demonii.com%3A1337&amp;tr=udp%3A%2F%2Ftracker.coppersurfer.tk%3A6969&amp;tr=udp%3A%2F%2Fexodus.desync.com%3A6969","seeders":0,"leechers":0,"uploader":"buker10","files":1,"time":1448371243,"description":"General\r\nComplete name                            : Cuatro Fantásticos.mkv\r\nFormat                                   : Matroska\r\nFormat version                           : Version 2\r\nFile size                                : 3.44 GiB\r\nDuration                                 : 1h 39mn\r\nOverall bit rate                         : 4 931 Kbps\r\n\r\nVideo\r\nID                                       : 1\r\nFormat                                   : AVC\r\nFormat/Info                              : Advanced Video Codec\r\nFormat profile                           :   \r\nFormat settings, CABAC                   : Yes\r\nFormat settings, ReFrames                : 4 frames\r\nMuxing mode                              : Header stripping\r\nCodec ID                                 : V_MPEG4/ISO/AVC\r\nDuration                                 : 1h 39mn\r\nBit rate                                 : 4 036 Kbps\r\nWidth                                    : 1 920 pixels\r\nHeight                                   : 808 pixels\r\nDisplay aspect ratio                     : 2.40:1\r\nFrame rate mode                          : Variable\r\nFrame rate                               : 23.976 fps\r\nColor space                              : YUV\r\nChroma subsampling                       : 4:2:0\r\nBit depth                                : 8 bits\r\nScan type                                : Progressive\r\nBits/(Pixel*Frame)                       : 0.109\r\nStream size                              : 2.75 GiB (80%)\r\nWriting library                          : x264 core 112\r\n\r\nAudio #1\r\nID                                       : 2\r\nFormat                                   : AC-3\r\nFormat/Info                              : Audio Coding 3\r\nMode extension                           : CM (complete main)\r\nFormat settings, Endianness              : Big\r\nMuxing mode                              : Header stripping\r\nCodec ID                                 : A_AC3\r\nDuration                                 : 1h 39mn\r\nBit rate mode                            : Constant\r\nBit rate                                 : 448 Kbps\r\nChannel(s)                               : 6 channels\r\nChannel positions                        : Front: L C R, Side: L R, LFE\r\nSampling rate                            : 48.0 KHz\r\nBit depth                                : 16 bits\r\nCompression mode                         : Lossy\r\nStream size                              : 320 MiB (9%)\r\nLanguage                                 : Spanish\r\nDefault                                  : Yes\r\nForced                                   : Yes\r\n\r\nAudio #2\r\nID                                       : 3\r\nFormat                                   : AC-3\r\nFormat/Info                              : Audio Coding 3\r\nMode extension                           : CM (complete main)\r\nFormat settings, Endianness              : Big\r\nMuxing mode                              : Header stripping\r\nCodec ID                                 : A_AC3\r\nDuration                                 : 1h 39mn\r\nBit rate mode                            : Constant\r\nBit rate                                 : 448 Kbps\r\nChannel(s)                               : 6 channels\r\nChannel positions                        : Front: L C R, Side: L R, LFE\r\nSampling rate                            : 48.0 KHz\r\nBit depth                                : 16 bits\r\nCompression mode                         : Lossy\r\nStream size                              : 320 MiB (9%)\r\nDefault                                  : No\r\nForced                                   : No\r\n\r\nText #1\r\nID                                       : 4\r\nFormat                                   : UTF-8\r\nCodec ID                                 : S_TEXT/UTF8\r\nCodec ID/Info                            : UTF-8 Plain Text\r\nTitle                                    : BukerMovies\r\nLanguage                                 : Spanish\r\nDefault                                  : No\r\nForced                                   : No\r\n\r\nText #2\r\nID                                       : 5\r\nFormat                                   : UTF-8\r\nCodec ID                                 : S_TEXT/UTF8\r\nCodec ID/Info                            : UTF-8 Plain Text\r\nTitle                                    : Forzados Spa\r\nLanguage                                 : Spanish\r\nDefault                                  : Yes\r\nForced                                   : Yes\r\n\r\nText #3\r\nID                                       : 6\r\nFormat                                   : UTF-8\r\nCodec ID                                 : S_TEXT/UTF8\r\nCodec ID/Info                            : UTF-8 Plain Text\r\nTitle                                    : Spanish\r\nLanguage                                 : Spanish\r\nDefault                                  : No\r\nForced                                   : No\r\n\r\nText #4\r\nID                                       : 7\r\nFormat                                   : UTF-8\r\nCodec ID                                 : S_TEXT/UTF8\r\nCodec ID/Info                            : UTF-8 Plain Text\r\nTitle                                    : Forzados Eng\r\nLanguage                                 : English\r\nDefault                                  : No\r\nForced                                   : No\r\n\r\nText #5\r\nID                                       : 8\r\nFormat                                   : UTF-8\r\nCodec ID                                 : S_TEXT/UTF8\r\nCodec ID/Info                            : UTF-8 Plain Text\r\nTitle                                    : English\r\nLanguage                                 : English\r\nDefault                                  : No\r\nForced                                   : No","torrent":{"xt":"urn:btih:0f1cf216c93c63108db778bdcae60cc12e1baf4b","amp;dn":"Cuatro+Fantasticos+%5B1080p%5D%5BSpanish%2CEnglish%5D","amp;tr":["udp%3A%2F%2Ftracker.leechers-paradise.org%3A6969","udp%3A%2F%2Fzer0day.ch%3A1337","udp%3A%2F%2Fopen.demonii.com%3A1337","udp%3A%2F%2Ftracker.coppersurfer.tk%3A6969","udp%3A%2F%2Fexodus.desync.com%3A6969"],"infoHash":"0f1cf216c93c63108db778bdcae60cc12e1baf4b","infoHashBuffer":{"type":"Buffer","data":[15,28,242,22,201,60,99,16,141,183,120,189,202,230,12,193,46,27,175,75]},"announce":[],"urlList":[]}}